<svg width="198" height="40" viewBox="0 0 198 40" fill="none" xmlns="http://www.w3.org/2000/svg">
<g id="g775">
<g id="shape">
<path id="path182" d="M26.6176 34.9738C26.855 34.9738 27.0741 35.1011 27.1928 35.3076L29.0835 38.6019C29.3391 39.0473 29.0196 39.604 28.5083 39.604H22.0888C21.8517 39.604 21.6323 39.4767 21.5136 39.2699L10.7452 20.5091C10.6266 20.3024 10.6266 20.0477 10.7452 19.841L21.5136 1.08013C21.6323 0.873427 21.8517 0.746094 22.0888 0.746094H28.5081C29.0194 0.746094 29.3389 1.30293 29.0831 1.74832L27.1897 5.04602C27.0712 5.25267 26.8518 5.37997 26.6146 5.37997H24.7465C24.5091 5.37997 24.2899 5.50732 24.1712 5.71404L16.0639 19.8411C15.9453 20.0477 15.9452 20.3023 16.0638 20.509L24.1712 34.6395C24.2899 34.8462 24.5093 34.9738 24.7465 34.9738H26.6176Z" fill="#0F893F"/>
<path id="path184" d="M15.9614 34.9737C16.1986 34.9737 16.4179 35.1011 16.5366 35.3078L18.4272 38.6019C18.6829 39.0472 18.3633 39.604 17.852 39.604H11.433C11.1958 39.604 10.9765 39.4766 10.8579 39.2699L0.0889927 20.5091C-0.0296643 20.3024 -0.0296642 20.0477 0.0889927 19.841L10.8579 1.08012C10.9765 0.873423 11.1958 0.746094 11.433 0.746094H17.8518C18.3631 0.746094 18.6827 1.30293 18.427 1.74832L16.5335 5.04603C16.4148 5.25267 16.1956 5.37997 15.9583 5.37997H14.0902C13.8529 5.37997 13.6336 5.50732 13.515 5.71404L5.40761 19.8411C5.289 20.0477 5.28898 20.3023 5.40757 20.509L13.515 34.6396C13.6336 34.8464 13.8529 34.9737 14.0903 34.9737H15.9614Z" fill="#2278C4"/>
<path id="path186" d="M60.6614 34.9738C60.424 34.9738 60.2048 35.1011 60.0861 35.3076L58.1954 38.6019C57.9398 39.0473 58.2593 39.604 58.7707 39.604H65.1897C65.4269 39.604 65.6462 39.4767 65.7647 39.2699L76.5337 20.5091C76.6524 20.3024 76.6524 20.0477 76.5337 19.841L65.7647 1.08012C65.6462 0.873423 65.4269 0.746094 65.1897 0.746094H58.7709C58.2595 0.746094 57.94 1.30293 58.1958 1.74832L60.0893 5.04602C60.2078 5.25267 60.4271 5.37997 60.6643 5.37997H62.5325C62.7698 5.37997 62.989 5.50732 63.1077 5.71404L71.2151 19.8411C71.3338 20.0477 71.3338 20.3023 71.2151 20.509L63.1077 34.6395C62.989 34.8462 62.7697 34.9738 62.5325 34.9738H60.6614Z" fill="#FDB700"/>
<path id="path188" d="M71.3136 34.9738C71.0764 34.9738 70.857 35.1009 70.7383 35.3077L68.8478 38.6018C68.5921 39.0473 68.9117 39.604 69.4229 39.604H75.8419C76.0793 39.604 76.2985 39.4767 76.4172 39.2699L87.1859 20.5091C87.3046 20.3024 87.3046 20.0477 87.1859 19.841L76.4172 1.08012C76.2985 0.873423 76.0793 0.746094 75.8419 0.746094H69.4231C68.9119 0.746094 68.5923 1.30293 68.848 1.74832L70.7415 5.04602C70.8602 5.25266 71.0794 5.37997 71.3166 5.37997H73.1847C73.4221 5.37997 73.6413 5.50732 73.7599 5.71404L81.8673 19.8411C81.986 20.0477 81.986 20.3023 81.8675 20.509L73.7599 34.6395C73.6413 34.8462 73.4221 34.9738 73.1847 34.9738H71.3136Z" fill="#D23237"/>
<path id="path190" d="M65.8379 19.841C65.9566 20.0477 65.9566 20.3024 65.8379 20.5091L55.0689 39.2699C54.9502 39.4767 54.7311 39.604 54.4937 39.604H32.9604C32.7232 39.604 32.5038 39.4767 32.3851 39.2699L21.6164 20.5091C21.4977 20.3024 21.4977 20.0477 21.6164 19.841L32.3851 1.07998C32.5038 0.873362 32.723 0.746094 32.9604 0.746094H54.4937C54.7311 0.746094 54.9502 0.873423 55.0689 1.08012L65.8379 19.841Z" fill="#241F20"/>
<path id="path192" d="M42.4837 26.9549C46.7436 28.1454 49.6444 25.6361 50.2493 22.9117C50.6423 21.1415 50.9272 19.3173 50.9851 17.5081C51.1139 13.4733 47.1187 10.7631 43.3622 12.2208C42.7751 12.4489 42.1831 12.6903 41.571 12.823C38.6501 13.4573 37.2811 16.2107 37.4846 18.4808C37.5125 18.7917 37.3165 19.1231 37.0892 19.4055C36.1219 16.7981 37.3655 13.7793 39.9248 12.6097C41.4409 11.9162 43.0841 11.3621 44.725 11.1225C47.0046 10.7893 48.8531 11.5826 50.3789 13.5766C51.9503 15.6294 52.1275 17.6043 51.3545 19.915C51.14 20.5559 51.2933 21.3166 51.2512 22.0204C51.013 25.9964 46.6499 29.0639 42.8896 27.8774C42.6175 27.7918 42.4287 27.4386 42.2017 27.2096C42.2954 27.125 42.3898 27.0395 42.4837 26.9549Z" fill="white"/>
<path id="path194" d="M38.7308 19.3232C38.5308 18.9954 38.2075 18.6872 38.1512 18.3362C37.8754 16.6187 38.9917 14.5659 40.6972 13.8426C41.9486 13.3117 43.2623 12.8574 44.5923 12.6017C48.2762 11.8927 51.228 15.3151 50.16 18.9254C49.9466 19.6483 49.8354 20.4286 49.8322 21.1837C49.8186 24.8047 46.8142 27.2573 43.2969 26.4775C42.7735 26.3621 42.3284 26.2067 42.5218 25.6874C43.5647 25.6874 44.5512 25.8322 45.4793 25.6593C47.8907 25.2094 49.2797 23.1094 48.9963 20.6508C48.9391 20.1561 49.0087 19.5949 49.1907 19.1321C49.854 17.4458 49.6184 15.8206 48.4467 14.5989C47.2246 13.3246 45.4687 12.9719 43.7821 13.6333C43.2007 13.8609 42.6047 14.0626 41.9998 14.2158C39.7475 14.7864 38.6918 16.5185 39.0651 19.0755C38.9535 19.1579 38.8419 19.2403 38.7308 19.3232Z" fill="white"/>
<path id="path196" d="M44.5454 24.3164C46.5202 24.307 47.857 22.6825 47.5059 20.6806C47.3783 19.9541 47.3318 19.3435 47.7548 18.61C48.7824 16.8284 47.4141 14.6393 45.3739 14.8134C44.116 14.9203 42.8868 15.3764 41.6483 15.6895C41.5779 15.7073 41.5517 15.8632 41.4827 15.9322C40.0361 17.3579 40.0654 18.6946 41.5238 20.1025C41.7474 20.318 41.9468 20.7497 41.8949 21.0328C41.5403 22.9655 42.6096 24.3253 44.5454 24.3164ZM41.2024 21.3874C40.9478 20.8338 40.7973 20.1924 40.4197 19.7439C39.41 18.5449 39.3463 17.0141 40.3779 15.8632C41.2202 14.9248 44.9903 13.7663 46.2391 14.0629C48.3484 14.5644 49.4142 16.6373 48.6952 18.6692C48.4503 19.3613 48.3334 20.1488 48.368 20.8824C48.5013 23.7071 46.2925 25.6619 43.6072 25.0223C42.2585 24.7012 40.9708 22.9321 41.2024 21.3874Z" fill="white"/>
<path id="path198" d="M34.3599 19.7406C34.1747 19.4083 33.8561 19.0876 33.8246 18.7411C33.4292 14.4021 36.0389 10.545 40.1861 9.28407C41.385 8.91973 42.582 8.54293 43.7952 8.2316C44.2628 8.11224 44.7791 8.09353 45.2622 8.14208C46.2669 8.24408 47.2767 8.36566 48.258 8.59548C48.6192 8.67967 48.9049 9.09076 49.132 9.49473C47.0854 8.87787 45.0992 8.60483 43.0827 9.23239C41.7443 9.64973 40.3817 10.0359 39.1106 10.6158C36.0225 12.0237 34.0123 15.8051 34.6592 19.1072C34.6906 19.2676 34.6473 19.4422 34.6388 19.6101C34.5458 19.6537 34.4529 19.6969 34.3599 19.7406Z" fill="white"/>
<path id="path200" d="M49.2446 11.1074C45.0935 9.30041 41.5433 10.796 38.3243 12.8965C36.4407 14.1249 35.8164 16.4169 36.0564 18.7681C36.071 18.9075 36.1794 19.0545 36.1519 19.177C36.0989 19.4171 35.9802 19.6425 35.8884 19.8736C35.7065 19.6785 35.4103 19.5097 35.3589 19.2839C34.608 16.0022 36.438 12.4128 39.7238 11.0798C41.8555 10.2153 44.0277 9.24207 46.4428 9.63446C47.1654 9.75206 47.8937 9.94045 48.5641 10.2259C48.8612 10.3533 49.0219 10.8036 49.2446 11.1074Z" fill="white"/>
<path id="path202" d="M41.5038 8.23957C36.1011 9.50094 33.2486 12.8837 32.7567 18.5077C32.6105 18.0988 32.3205 17.6824 32.3409 17.2824C32.5836 12.4922 36.0514 8.64578 40.52 7.71623C40.8154 7.65477 41.1526 7.79819 41.4701 7.8463C41.4816 7.97723 41.4927 8.10818 41.5038 8.23957Z" fill="white"/>
<path id="path204" d="M31.7188 14.5528C31.8533 13.8732 31.8465 13.1209 32.146 12.5245C33.8737 9.0861 36.7052 7.04887 40.4083 6.19861C40.5938 6.15585 40.8156 6.27432 41.0211 6.31754C40.8993 6.52866 40.8249 6.86048 40.6482 6.93129C39.803 7.2689 38.894 7.4573 38.0731 7.84123C35.1116 9.22461 33.1547 11.5358 32.1146 14.6504C31.9826 14.6179 31.8507 14.5854 31.7188 14.5528Z" fill="white"/>
<path id="path206" d="M42.3418 28.5008C46.6004 29.277 49.7681 27.8999 51.5799 23.8477C51.6756 23.863 51.7704 23.8775 51.8659 23.8928C51.8019 24.4183 51.8762 25.0151 51.6513 25.4578C50.1768 28.3601 46.2777 30.1621 43.1224 29.4245C42.7978 29.3484 42.5367 28.9978 42.2461 28.7742C42.2779 28.6829 42.31 28.5917 42.3418 28.5008Z" fill="white"/>
<path id="path208" d="M43.2992 30.1428C46.8539 30.4435 49.8019 29.3495 51.9139 26.3359L52.1584 26.447C52.0605 26.8602 52.0969 27.4055 51.8437 27.6665C49.716 29.8569 47.2285 31.2754 44.052 30.9654C43.7328 30.9338 43.4382 30.6391 43.1328 30.4672C43.1882 30.3583 43.244 30.2507 43.2992 30.1428Z" fill="white"/>
<path id="path210" d="M50.2544 30.0254C50.3167 31.2033 48.4638 32.1774 45.8841 32.4291C43.9965 32.6139 43.7321 32.5359 43.6055 31.6371C45.9691 31.7677 48.2038 31.3156 50.2544 30.0254Z" fill="white"/>
<path id="path212" d="M52.6444 16.1387C52.9208 16.4709 53.312 16.7337 53.2859 16.9435C53.0911 18.4957 52.8246 20.0399 52.5508 21.5814C52.5115 21.8005 52.3123 21.9911 52.1875 22.1947C52.0652 22.1314 51.9426 22.0687 51.8203 22.0058C52.0824 20.1379 52.3451 18.2694 52.6444 16.1387Z" fill="white"/>
<path id="path214" d="M49.2153 32.4316C48.1264 34.0627 46.419 33.7855 44.8826 33.9164C44.5984 33.9409 44.2858 33.6251 43.7695 33.3513C45.7951 33.0093 47.4623 32.7273 49.2153 32.4316Z" fill="white"/>
<path id="path216" d="M55.4661 26.1973C55.8756 28.1266 54.4034 29.063 53.3796 30.2409C53.3416 28.5217 54.9591 27.6474 55.4661 26.1973Z" fill="white"/>
<path id="path218" d="M54.7092 16.5477C54.8987 17.8473 54.8479 19.0833 53.6562 20.0155C53.9809 18.8526 53.8268 17.5622 54.1492 16.3984C54.3359 16.4483 54.5223 16.4982 54.7092 16.5477Z" fill="white"/>
<path id="path220" d="M34.0273 8.68679C34.5587 6.97426 35.7861 6.68607 37.1215 6.55469C36.1459 7.22678 35.1711 7.89844 34.0273 8.68679Z" fill="white"/>
<path id="path222" d="M44.9805 34.6483C45.9048 34.5397 46.6949 34.4465 47.5366 34.3477C46.6617 35.4695 45.9974 35.5694 44.9805 34.6483Z" fill="white"/>
<path id="path224" d="M41.5895 17.5796C42.0211 18.1407 42.3825 18.8204 42.9307 19.2703C43.6458 19.8568 43.8679 20.3766 43.442 21.2541C43.0144 22.1336 43.357 22.6036 44.3091 22.841C45.5015 23.1377 46.4365 21.7735 46.0461 20.6898C45.7046 19.7446 45.5656 18.9033 46.3718 18.0566C46.5987 17.8183 46.5544 17.046 46.3347 16.7284C46.1293 16.4318 45.4722 16.2118 45.1086 16.3097C43.9866 16.6148 42.9099 17.0878 41.5895 17.5796ZM46.9295 21.1966C46.9241 23.0633 45.164 24.2062 43.5107 23.4668C42.6672 23.0895 42.1921 22.185 42.5671 21.2701C42.8935 20.4764 42.7127 20.0426 42.0354 19.6475C41.803 19.5117 41.6204 19.2627 41.4584 19.0351C40.6463 17.8944 41.1773 16.577 42.5281 16.259C43.225 16.0951 43.9087 15.8563 44.5783 15.5993C45.4621 15.2599 46.2599 15.366 46.9073 16.0492C47.5237 16.6995 47.7522 17.5791 47.1942 18.2793C46.5459 19.0926 46.5849 19.8528 46.8502 20.7227C46.9016 20.8902 46.9095 21.0711 46.9295 21.1966Z" fill="white"/>
<path id="path226" d="M42.5664 18.0234C43.51 17.6359 44.3487 17.2667 45.209 16.958C45.3882 16.8939 45.7389 16.9879 45.843 17.1317C45.9449 17.272 45.9237 17.664 45.801 17.7829C44.8955 18.6612 45.0173 19.6455 45.3516 20.7166C45.4551 21.0503 45.4203 21.5282 45.2462 21.816C45.1115 22.0386 44.662 22.1371 44.3505 22.1419C44.2508 22.1437 43.9808 21.574 44.0652 21.4272C44.794 20.1582 44.2122 19.3765 43.1899 18.6879C42.9233 18.5085 42.7359 18.2087 42.5664 18.0234Z" fill="white"/>
</g>
<g id="text">
<g id="Description">
<path id="path228" d="M100.402 34.0733L100.011 32.9916H97.8537L97.4633 34.0733H96.7852L98.573 29.25H99.2922L101.08 34.0733H100.402ZM98.0729 32.3921H99.7923L98.9291 30.0149L98.0729 32.3921Z" fill="#FCFCFC"/>
<path id="path230" d="M103.587 29.7389C102.984 29.6883 102.683 29.9502 102.683 30.5244V30.6277H103.587V31.2065H102.683V34.0728H102.087V31.2065H101.539V30.6277H102.087V30.5244C102.087 30.0604 102.215 29.709 102.471 29.4701C102.731 29.2313 103.103 29.1278 103.587 29.16V29.7389Z" fill="#FCFCFC"/>
<path id="path232" d="M104.979 31.2073C105.175 30.7801 105.531 30.5664 106.047 30.5664V31.1936C105.755 31.1797 105.504 31.2579 105.294 31.4278C105.084 31.5977 104.979 31.8711 104.979 32.2478V34.0736H104.383V30.6285H104.979V31.2073Z" fill="#FCFCFC"/>
<path id="path234" d="M107.275 30.0016C107.161 30.0016 107.065 29.9626 106.988 29.8844C106.91 29.8064 106.871 29.7121 106.871 29.6018C106.871 29.4916 106.91 29.3975 106.988 29.3195C107.065 29.2367 107.161 29.1953 107.275 29.1953C107.385 29.1953 107.479 29.2367 107.556 29.3195C107.634 29.3975 107.673 29.4916 107.673 29.6018C107.673 29.7121 107.634 29.8064 107.556 29.8844C107.479 29.9626 107.385 30.0016 107.275 30.0016ZM106.974 34.0737V30.6286H107.57V34.0737H106.974Z" fill="#FCFCFC"/>
<path id="path236" d="M110.431 34.1635C109.914 34.1635 109.485 33.9912 109.143 33.6465C108.8 33.2975 108.629 32.8657 108.629 32.3512C108.629 31.8368 108.8 31.4072 109.143 31.0628C109.485 30.7136 109.914 30.5391 110.431 30.5391C110.768 30.5391 111.072 30.6216 111.342 30.787C111.611 30.9478 111.812 31.166 111.944 31.4416L111.444 31.7311C111.358 31.5473 111.223 31.4002 111.04 31.29C110.862 31.1798 110.659 31.1247 110.431 31.1247C110.088 31.1247 109.8 31.2419 109.568 31.4761C109.339 31.7105 109.225 32.0022 109.225 32.3512C109.225 32.6958 109.339 32.9851 109.568 33.2193C109.8 33.4537 110.088 33.5707 110.431 33.5707C110.659 33.5707 110.864 33.518 111.047 33.4123C111.23 33.3021 111.369 33.155 111.465 32.9714L111.972 33.2677C111.826 33.5387 111.616 33.7568 111.342 33.9223C111.068 34.0831 110.764 34.1635 110.431 34.1635Z" fill="#FCFCFC"/>
<path id="path238" d="M115.692 30.6286H116.288V34.0737H115.692V33.4812C115.395 33.936 114.963 34.1635 114.397 34.1635C113.918 34.1635 113.509 33.9888 113.171 33.6398C112.833 33.286 112.664 32.8566 112.664 32.3512C112.664 31.846 112.833 31.4188 113.171 31.0695C113.509 30.716 113.918 30.5391 114.397 30.5391C114.963 30.5391 115.395 30.7665 115.692 31.2212V30.6286ZM114.472 33.5846C114.819 33.5846 115.109 33.4674 115.342 33.2332C115.575 32.9943 115.692 32.7004 115.692 32.3512C115.692 32.0022 115.575 31.7105 115.342 31.4761C115.109 31.2373 114.819 31.1179 114.472 31.1179C114.13 31.1179 113.842 31.2373 113.609 31.4761C113.376 31.7105 113.26 32.0022 113.26 32.3512C113.26 32.7004 113.376 32.9943 113.609 33.2332C113.842 33.4674 114.13 33.5846 114.472 33.5846Z" fill="#FCFCFC"/>
<path id="path240" d="M119.237 30.5391C119.639 30.5391 119.961 30.6676 120.203 30.9249C120.445 31.1776 120.566 31.522 120.566 31.9584V34.0737H119.97V31.993C119.97 31.7126 119.895 31.4968 119.744 31.3451C119.593 31.1889 119.385 31.1109 119.12 31.1109C118.824 31.1109 118.584 31.205 118.401 31.3935C118.219 31.5771 118.127 31.8621 118.127 32.2479V34.0737H117.531V30.6286H118.127V31.1247C118.369 30.7343 118.739 30.5391 119.237 30.5391Z" fill="#FCFCFC"/>
<path id="path242" d="M125.729 29.25C126.382 29.25 126.924 29.4844 127.353 29.9528C127.787 30.4168 128.004 30.9865 128.004 31.6616C128.004 32.337 127.787 32.9088 127.353 33.3774C126.924 33.8415 126.382 34.0733 125.729 34.0733H123.859V29.25H125.729ZM125.729 33.467C126.218 33.467 126.618 33.2947 126.928 32.9502C127.239 32.6056 127.394 32.1762 127.394 31.6616C127.394 31.1473 127.239 30.7177 126.928 30.3732C126.618 30.0286 126.218 29.8565 125.729 29.8565H124.497V33.467H125.729Z" fill="#FCFCFC"/>
<path id="path244" d="M129.473 32.6268C129.532 32.9346 129.672 33.1736 129.891 33.3435C130.115 33.5134 130.389 33.5984 130.713 33.5984C131.165 33.5984 131.494 33.4306 131.699 33.0954L132.206 33.3849C131.873 33.9038 131.37 34.1635 130.699 34.1635C130.156 34.1635 129.713 33.9933 129.37 33.6535C129.032 33.3091 128.863 32.8749 128.863 32.3512C128.863 31.8322 129.03 31.4002 129.363 31.0558C129.697 30.7114 130.128 30.5391 130.658 30.5391C131.16 30.5391 131.569 30.7181 131.884 31.0765C132.204 31.4301 132.364 31.8573 132.364 32.3581C132.364 32.4453 132.357 32.535 132.343 32.6268H129.473ZM130.658 31.104C130.338 31.104 130.074 31.1959 129.863 31.3797C129.653 31.5588 129.523 31.8 129.473 32.1032H131.761C131.711 31.7769 131.583 31.529 131.377 31.3591C131.172 31.1889 130.932 31.104 130.658 31.104Z" fill="#FCFCFC"/>
<path id="path246" d="M135.658 30.627H136.302L134.932 34.0721H134.233L132.863 30.627H133.507L134.583 33.4314L135.658 30.627Z" fill="#FCFCFC"/>
<path id="path248" d="M137.43 32.6268C137.489 32.9346 137.629 33.1736 137.848 33.3435C138.072 33.5134 138.346 33.5984 138.67 33.5984C139.122 33.5984 139.451 33.4306 139.656 33.0954L140.163 33.3849C139.83 33.9038 139.327 34.1635 138.656 34.1635C138.113 34.1635 137.67 33.9933 137.327 33.6535C136.989 33.3091 136.82 32.8749 136.82 32.3512C136.82 31.8322 136.987 31.4002 137.32 31.0558C137.654 30.7114 138.085 30.5391 138.615 30.5391C139.117 30.5391 139.526 30.7181 139.841 31.0765C140.161 31.4301 140.321 31.8573 140.321 32.3581C140.321 32.4453 140.314 32.535 140.3 32.6268H137.43ZM138.615 31.104C138.295 31.104 138.031 31.1959 137.82 31.3797C137.61 31.5588 137.48 31.8 137.43 32.1032H139.718C139.668 31.7769 139.54 31.529 139.334 31.3591C139.129 31.1889 138.889 31.104 138.615 31.104Z" fill="#FCFCFC"/>
<path id="path250" d="M141.348 34.073V29.043H141.944V34.073H141.348Z" fill="#FCFCFC"/>
<path id="path252" d="M146.086 33.6398C145.735 33.9888 145.308 34.1635 144.805 34.1635C144.303 34.1635 143.876 33.9888 143.525 33.6398C143.177 33.2906 143.004 32.8612 143.004 32.3512C143.004 31.8414 143.177 31.4118 143.525 31.0628C143.876 30.7136 144.303 30.5391 144.805 30.5391C145.308 30.5391 145.735 30.7136 146.086 31.0628C146.438 31.4118 146.614 31.8414 146.614 32.3512C146.614 32.8612 146.438 33.2906 146.086 33.6398ZM144.805 33.5777C145.148 33.5777 145.436 33.4605 145.668 33.2263C145.901 32.9921 146.018 32.7004 146.018 32.3512C146.018 32.0022 145.901 31.7105 145.668 31.4761C145.436 31.2419 145.148 31.1247 144.805 31.1247C144.468 31.1247 144.182 31.2419 143.949 31.4761C143.716 31.7105 143.6 32.0022 143.6 32.3512C143.6 32.7004 143.716 32.9921 143.949 33.2263C144.182 33.4605 144.468 33.5777 144.805 33.5777Z" fill="#FCFCFC"/>
<path id="path254" d="M149.551 30.5391C150.03 30.5391 150.439 30.716 150.777 31.0695C151.115 31.4188 151.284 31.846 151.284 32.3512C151.284 32.8566 151.115 33.286 150.777 33.6398C150.439 33.9888 150.03 34.1635 149.551 34.1635C148.985 34.1635 148.553 33.936 148.256 33.4812V35.4519H147.66V30.6286H148.256V31.2212C148.553 30.7665 148.985 30.5391 149.551 30.5391ZM149.475 33.5846C149.818 33.5846 150.106 33.4674 150.339 33.2332C150.571 32.9943 150.688 32.7004 150.688 32.3512C150.688 32.0022 150.571 31.7105 150.339 31.4761C150.106 31.2373 149.818 31.1179 149.475 31.1179C149.128 31.1179 148.838 31.2373 148.606 31.4761C148.373 31.7105 148.256 32.0022 148.256 32.3512C148.256 32.7004 148.373 32.9943 148.606 33.2332C148.838 33.4674 149.128 33.5846 149.475 33.5846Z" fill="#FCFCFC"/>
<path id="path256" d="M156.035 30.5391C156.419 30.5391 156.729 30.6654 156.967 30.9179C157.204 31.166 157.323 31.5037 157.323 31.9309V34.0737H156.727V31.9516C156.727 31.6852 156.658 31.4784 156.521 31.3314C156.384 31.1844 156.202 31.1109 155.973 31.1109C155.718 31.1109 155.512 31.1983 155.357 31.3728C155.206 31.5427 155.131 31.8046 155.131 32.1584V34.0737H154.535V31.9516C154.535 31.6852 154.469 31.4784 154.336 31.3314C154.208 31.1844 154.033 31.1109 153.809 31.1109C153.558 31.1109 153.348 31.1983 153.179 31.3728C153.014 31.5473 152.932 31.8091 152.932 32.1584V34.0737H152.336V30.6286H152.932V31.0902C153.165 30.7227 153.505 30.5391 153.953 30.5391C154.414 30.5391 154.749 30.7343 154.96 31.1247C155.197 30.7343 155.556 30.5391 156.035 30.5391Z" fill="#FCFCFC"/>
<path id="path258" d="M158.91 32.6268C158.97 32.9346 159.109 33.1736 159.328 33.3435C159.552 33.5134 159.826 33.5984 160.15 33.5984C160.602 33.5984 160.931 33.4306 161.137 33.0954L161.644 33.3849C161.31 33.9038 160.808 34.1635 160.137 34.1635C159.593 34.1635 159.15 33.9933 158.808 33.6535C158.47 33.3091 158.301 32.8749 158.301 32.3512C158.301 31.8322 158.468 31.4002 158.801 31.0558C159.134 30.7114 159.566 30.5391 160.096 30.5391C160.598 30.5391 161.006 30.7181 161.322 31.0765C161.641 31.4301 161.801 31.8573 161.801 32.3581C161.801 32.4453 161.794 32.535 161.781 32.6268H158.91ZM160.096 31.104C159.776 31.104 159.511 31.1959 159.301 31.3797C159.091 31.5588 158.961 31.8 158.91 32.1032H161.198C161.148 31.7769 161.02 31.529 160.815 31.3591C160.609 31.1889 160.37 31.104 160.096 31.104Z" fill="#FCFCFC"/>
<path id="path260" d="M164.534 30.5391C164.936 30.5391 165.258 30.6676 165.5 30.9249C165.742 31.1776 165.863 31.522 165.863 31.9584V34.0737H165.267V31.993C165.267 31.7126 165.191 31.4968 165.041 31.3451C164.89 31.1889 164.682 31.1109 164.417 31.1109C164.12 31.1109 163.881 31.205 163.698 31.3935C163.515 31.5771 163.424 31.8621 163.424 32.2479V34.0737H162.828V30.6286H163.424V31.1247C163.666 30.7343 164.036 30.5391 164.534 30.5391Z" fill="#FCFCFC"/>
<path id="path262" d="M168.9 31.2075H167.989V33.0748C167.989 33.2447 168.021 33.3665 168.085 33.4401C168.153 33.5089 168.256 33.5458 168.393 33.5503C168.53 33.5503 168.699 33.5458 168.9 33.5364V34.0738C168.379 34.1429 167.998 34.1015 167.756 33.9499C167.514 33.7937 167.393 33.502 167.393 33.0748V31.2075H166.715V30.6287H167.393V29.8431L167.989 29.6641V30.6287H168.9V31.2075Z" fill="#FCFCFC"/>
<path id="path264" d="M176.709 31.682V31.9715C176.709 32.6007 176.495 33.1244 176.065 33.5425C175.636 33.956 175.068 34.1627 174.36 34.1627C173.629 34.1627 173.024 33.9215 172.545 33.4392C172.07 32.9521 171.832 32.3596 171.832 31.6613C171.832 30.9631 172.07 30.3729 172.545 29.8906C173.024 29.4037 173.625 29.1602 174.346 29.1602C174.789 29.1602 175.195 29.2682 175.565 29.4841C175.935 29.6954 176.221 29.9756 176.422 30.3246L175.874 30.6485C175.737 30.3867 175.529 30.1777 175.25 30.0215C174.976 29.8608 174.673 29.7804 174.339 29.7804C173.791 29.7804 173.341 29.9618 172.99 30.3246C172.638 30.6829 172.462 31.1285 172.462 31.6613C172.462 32.1942 172.638 32.6399 172.99 32.9981C173.346 33.3564 173.805 33.5355 174.367 33.5355C174.846 33.5355 175.234 33.4185 175.531 33.1841C175.828 32.9453 176.008 32.6375 176.072 32.2609H174.312V31.682H176.709Z" fill="#FCFCFC"/>
<path id="path266" d="M178.361 31.2073C178.558 30.7801 178.914 30.5664 179.43 30.5664V31.1936C179.138 31.1797 178.887 31.2579 178.677 31.4278C178.467 31.5977 178.361 31.8711 178.361 32.2478V34.0736H177.766V30.6285H178.361V31.2073Z" fill="#FCFCFC"/>
<path id="path268" d="M183.059 33.6398C182.708 33.9888 182.28 34.1635 181.778 34.1635C181.276 34.1635 180.849 33.9888 180.497 33.6398C180.15 33.2906 179.977 32.8612 179.977 32.3512C179.977 31.8414 180.15 31.4118 180.497 31.0628C180.849 30.7136 181.276 30.5391 181.778 30.5391C182.28 30.5391 182.708 30.7136 183.059 31.0628C183.411 31.4118 183.587 31.8414 183.587 32.3512C183.587 32.8612 183.411 33.2906 183.059 33.6398ZM181.778 33.5777C182.121 33.5777 182.408 33.4605 182.641 33.2263C182.874 32.9921 182.991 32.7004 182.991 32.3512C182.991 32.0022 182.874 31.7105 182.641 31.4761C182.408 31.2419 182.121 31.1247 181.778 31.1247C181.44 31.1247 181.155 31.2419 180.922 31.4761C180.689 31.7105 180.573 32.0022 180.573 32.3512C180.573 32.7004 180.689 32.9921 180.922 33.2263C181.155 33.4605 181.44 33.5777 181.778 33.5777Z" fill="#FCFCFC"/>
<path id="path270" d="M186.993 30.627H187.589V34.0721H186.993V33.576C186.751 33.9664 186.381 34.1618 185.884 34.1618C185.482 34.1618 185.16 34.0355 184.918 33.7828C184.676 33.5255 184.555 33.1787 184.555 32.7423V30.627H185.151V32.7079C185.151 32.988 185.226 33.2063 185.377 33.3625C185.527 33.5139 185.735 33.5898 186 33.5898C186.297 33.5898 186.537 33.498 186.719 33.3142C186.902 33.1259 186.993 32.8388 186.993 32.453V30.627Z" fill="#FCFCFC"/>
<path id="path272" d="M190.731 30.5391C191.21 30.5391 191.619 30.716 191.957 31.0695C192.295 31.4188 192.464 31.846 192.464 32.3512C192.464 32.8566 192.295 33.286 191.957 33.6398C191.619 33.9888 191.21 34.1635 190.731 34.1635C190.164 34.1635 189.733 33.936 189.436 33.4812V35.4519H188.84V30.6286H189.436V31.2212C189.733 30.7665 190.164 30.5391 190.731 30.5391ZM190.655 33.5846C190.998 33.5846 191.285 33.4674 191.518 33.2332C191.751 32.9943 191.868 32.7004 191.868 32.3512C191.868 32.0022 191.751 31.7105 191.518 31.4761C191.285 31.2373 190.998 31.1179 190.655 31.1179C190.308 31.1179 190.018 31.2373 189.785 31.4761C189.552 31.7105 189.436 32.0022 189.436 32.3512C189.436 32.7004 189.552 32.9943 189.785 33.2332C190.018 33.4674 190.308 33.5846 190.655 33.5846Z" fill="#FCFCFC"/>
<path id="path274" d="M193.934 32.6268C193.993 32.9346 194.132 33.1736 194.352 33.3435C194.575 33.5134 194.849 33.5984 195.174 33.5984C195.626 33.5984 195.955 33.4306 196.16 33.0954L196.667 33.3849C196.334 33.9038 195.831 34.1635 195.16 34.1635C194.617 34.1635 194.174 33.9933 193.831 33.6535C193.493 33.3091 193.324 32.8749 193.324 32.3512C193.324 31.8322 193.491 31.4002 193.824 31.0558C194.158 30.7114 194.589 30.5391 195.119 30.5391C195.621 30.5391 196.03 30.7181 196.345 31.0765C196.665 31.4301 196.825 31.8573 196.825 32.3581C196.825 32.4453 196.817 32.535 196.803 32.6268H193.934ZM195.119 31.104C194.799 31.104 194.534 31.1959 194.324 31.3797C194.114 31.5588 193.984 31.8 193.934 32.1032H196.222C196.172 31.7769 196.044 31.529 195.838 31.3591C195.633 31.1889 195.393 31.104 195.119 31.104Z" fill="#FCFCFC"/>
</g>
<g id="ADG">
<path id="path276" d="M107.56 20.6918L106.551 17.7714H100.415L99.4058 20.6918H96.832L102.062 6.19336H104.904L110.113 20.6918H107.56ZM101.197 15.5345H105.768L103.483 8.9895L101.197 15.5345Z" fill="#FCFCFC"/>
<path id="path278" d="M117.53 6.19336C119.506 6.19336 121.147 6.89066 122.451 8.28527C123.769 9.6799 124.427 11.399 124.427 13.4426C124.427 15.4724 123.769 17.1915 122.451 18.5999C121.147 19.9945 119.506 20.6918 117.53 20.6918H111.867V6.19336H117.53ZM117.53 18.4135C118.889 18.4135 119.994 17.944 120.845 17.0051C121.709 16.0661 122.142 14.8786 122.142 13.4426C122.142 11.9927 121.709 10.8052 120.845 9.88011C119.994 8.94117 118.889 8.4717 117.53 8.4717H114.235V18.4135H117.53Z" fill="#FCFCFC"/>
<path id="path280" d="M140.817 13.1938V14.1879C140.817 16.1763 140.165 17.8056 138.861 19.076C137.557 20.3325 135.855 20.9608 133.755 20.9608C131.531 20.9608 129.691 20.2359 128.236 18.786C126.795 17.3362 126.074 15.5549 126.074 13.4423C126.074 11.3435 126.795 9.56915 128.236 8.11931C129.691 6.65566 131.49 5.92383 133.631 5.92383C134.976 5.92383 136.205 6.23451 137.317 6.85589C138.428 7.47724 139.293 8.31262 139.911 9.36204L137.873 10.5426C137.488 9.85222 136.919 9.29989 136.163 8.88566C135.409 8.45761 134.564 8.24359 133.631 8.24359C132.121 8.24359 130.879 8.74068 129.904 9.73484C128.929 10.729 128.442 11.9718 128.442 13.463C128.442 14.9543 128.929 16.1901 129.904 17.1705C130.892 18.1508 132.183 18.641 133.775 18.641C135.052 18.641 136.088 18.3442 136.884 17.7504C137.694 17.1429 138.209 16.3351 138.428 15.3271H133.61V13.1938H140.817Z" fill="#FCFCFC"/>
<path id="path282" d="M145.267 12.0746C145.83 10.7905 146.887 10.1484 148.438 10.1484V12.5717C147.587 12.5165 146.846 12.7236 146.214 13.1931C145.582 13.6488 145.267 14.4082 145.267 15.4714V20.6909H143.043V10.3348H145.267V12.0746Z" fill="#FCFCFC"/>
<path id="path284" d="M154.662 20.9609C153.153 20.9609 151.869 20.4362 150.812 19.3868C149.755 18.3374 149.227 17.0464 149.227 15.5137C149.227 13.981 149.755 12.6899 150.812 11.6405C151.869 10.5911 153.153 10.0664 154.662 10.0664C156.186 10.0664 157.47 10.5911 158.513 11.6405C159.57 12.6899 160.098 13.981 160.098 15.5137C160.098 17.0464 159.57 18.3374 158.513 19.3868C157.47 20.4362 156.186 20.9609 154.662 20.9609ZM152.377 17.8541C152.995 18.4755 153.756 18.7862 154.662 18.7862C155.568 18.7862 156.33 18.4755 156.948 17.8541C157.566 17.2328 157.875 16.4526 157.875 15.5137C157.875 14.5747 157.566 13.7946 156.948 13.1732C156.33 12.5518 155.568 12.2412 154.662 12.2412C153.756 12.2412 152.995 12.5518 152.377 13.1732C151.759 13.7946 151.45 14.5747 151.45 15.5137C151.45 16.4526 151.759 17.2328 152.377 17.8541Z" fill="#FCFCFC"/>
<path id="path286" d="M169.254 10.3359H171.478V20.692H169.254V19.3664C168.582 20.4296 167.518 20.9612 166.063 20.9612C164.882 20.9612 163.928 20.5815 163.201 19.8221C162.473 19.0626 162.109 18.0201 162.109 16.6945V10.3359H164.333V16.4667C164.333 17.24 164.539 17.8337 164.951 18.2479C165.363 18.6622 165.925 18.8693 166.639 18.8693C167.422 18.8693 168.053 18.6277 168.534 18.1444C169.014 17.6473 169.254 16.8947 169.254 15.8868V10.3359Z" fill="#FCFCFC"/>
<path id="path288" d="M180.112 10.0664C181.526 10.0664 182.734 10.598 183.736 11.6612C184.738 12.7106 185.239 13.9948 185.239 15.5137C185.239 17.0464 184.738 18.3374 183.736 19.3868C182.734 20.4362 181.526 20.9609 180.112 20.9609C178.547 20.9609 177.346 20.381 176.509 19.2211V24.8341H174.285V10.3357H176.509V11.8269C177.346 10.6532 178.547 10.0664 180.112 10.0664ZM177.436 17.8956C178.053 18.5169 178.829 18.8276 179.762 18.8276C180.696 18.8276 181.471 18.5169 182.089 17.8956C182.707 17.2604 183.015 16.4664 183.015 15.5137C183.015 14.5609 182.707 13.7739 182.089 13.1525C181.471 12.5173 180.696 12.1997 179.762 12.1997C178.829 12.1997 178.053 12.5173 177.436 13.1525C176.818 13.7739 176.509 14.5609 176.509 15.5137C176.509 16.4664 176.818 17.2604 177.436 17.8956Z" fill="#FCFCFC"/>
<path id="path290" d="M189.21 16.4664C189.374 17.2535 189.752 17.861 190.342 18.2891C190.932 18.7033 191.653 18.9105 192.504 18.9105C193.685 18.9105 194.57 18.4824 195.16 17.6263L196.992 18.7033C195.977 20.2084 194.474 20.9609 192.483 20.9609C190.809 20.9609 189.457 20.45 188.427 19.4282C187.398 18.3926 186.883 17.0878 186.883 15.5137C186.883 13.9672 187.391 12.6761 188.407 11.6405C189.422 10.5911 190.727 10.0664 192.319 10.0664C193.829 10.0664 195.064 10.598 196.025 11.6612C197 12.7245 197.487 14.0155 197.487 15.5344C197.487 15.7691 197.459 16.0798 197.404 16.4664H189.21ZM189.189 14.6438H195.243C195.092 13.8015 194.742 13.1663 194.193 12.7383C193.657 12.3102 193.026 12.0962 192.298 12.0962C191.475 12.0962 190.788 12.324 190.239 12.7797C189.69 13.2354 189.34 13.8567 189.189 14.6438Z" fill="#FCFCFC"/>
</g>
</g>
</g>
</svg>
